Here's the "slightly modified" version of the music video 

*Shakira feat. Pitbull - Rabiosa (Pitbull Version)[720p.x264]MP3*


========================================================================

Format                           : Matroska
File size                        : 64.9 MiB
Duration                         : 2mn 50s
Overall bit rate                 : 3 192 Kbps
Writing application              : mkvmerge v2.9.8 ('C'est le bon') 


Video
ID                               : 1
Format                           : AVC
Format/Info                      : Advanced Video Codec
Format profile                   : High@L4.1
Format settings, CABAC           : Yes
Format settings, ReFrames        : 5 frames
Format settings, GOP             : M=1, N=15
Muxing mode                      : Container profile=Unknown@4.1
Codec ID                         : V_MPEG4/ISO/AVC
Duration                         : 2mn 50s
Bit rate                         : 2 881 Kbps
Width                            : 1 280 pixels
Height                           : 720 pixels
Display aspect ratio             : 16:9
Frame rate                       : 25.000 fps
Color space                      : YUV
Chroma subsampling               : 4:2:0
Bit depth                        : 8 bits
Scan type                        : Progressive
Bits/(Pixel*Frame)               : 0.125
Stream size                      : 57.1 MiB (88%)
Writing library                  : x264 core 115 r1995 c1e60b9


Audio
ID                               : 2
Format                           : MPEG Audio
Format version                   : Version 1
Format profile                   : Layer 3
Mode                             : Joint stereo
Mode extension                   : MS Stereo
Codec ID                         : A_MPEG/L3
Codec ID/Hint                    : MP3
Duration                         : 2mn 50s
Bit rate mode                    : Constant
Bit rate                         : 320 Kbps
Channel(s)                       : 2 channels
Sampling rate                    : 48.0 KHz
Stream size                      : 6.51 MiB (10%)
Writing library                  : LAME3.98r
Encoding settings                : -m j -V 4 -q 2 -lowpass 20.5


========================================================================

Enjoy......Fuckers.